<?xml version="1.0" encoding="utf-8" standalone="no"?>
<!DOCTYPE svg PUBLIC "-//W3C//DTD SVG 1.1//EN"
  "http://www.w3.org/Graphics/SVG/1.1/DTD/svg11.dtd">
<svg xmlns:xlink="http://www.w3.org/1999/xlink" width="1152pt" height="648pt" viewBox="0 0 1152 648" xmlns="http://www.w3.org/2000/svg" version="1.1">
 <metadata>
  <rdf:RDF xmlns:dc="http://purl.org/dc/elements/1.1/" xmlns:cc="http://creativecommons.org/ns#" xmlns:rdf="http://www.w3.org/1999/02/22-rdf-syntax-ns#">
   <cc:Work>
    <dc:type rdf:resource="http://purl.org/dc/dcmitype/StillImage"/>
    <dc:date>2026-09-22T00:28:37.021049</dc:date>
    <dc:format>image/svg+xml</dc:format>
    <dc:creator>
     <cc:Agent>
      <dc:title>Matplotlib v3.11.2, https://matplotlib.org/</dc:title>
     </cc:Agent>
    </dc:creator>
   </cc:Work>
  </rdf:RDF>
 </metadata>
 <defs>
  <style type="text/css">*{stroke-linejoin: round; stroke-linecap: butt}</style>
 </defs>
 <g id="figure_1">
  <g id="patch_1">
   <path d="M 0 648 
L 1152 648 
L 1152 0 
L 0 0 
z
" style="fill: #ffffff"/>
  </g>
  <g id="axes_1">
   <g id="patch_2">
    <path d="M 109.44 313.16502 
L 1100.16 313.16502 
L 1100.16 136.08 
L 109.44 136.08 
z
" style="fill: #ffffff"/>
   </g>
   <g id="matplotlib.axis_1">
    <g id="xtick_1">
     <g id="line2d_1">
      <path d="M 182.8398 313.16502 
L 182.8398 136.08 
" clip-path="url(#p65ed02f756)" style="fill: none; stroke: #e4e1e3; stroke-opacity: 0.9; stroke-width: 0.7; stroke-linecap: square"/>
     </g>
     <g id="line2d_2">
      <defs>
       <path id="m0898925bd8" d="M 0 0 
L 0 3.5 
" style="stroke: #000000; stroke-width: 0.8"/>
      </defs>
      <g>
       <use xlink:href="#m0898925bd8" x="182.8398" y="313.16502" style="stroke: #000000; stroke-width: 0.8"/>
      </g>
     </g>
     <g id="text_1">
      <text style="font-size: 11px; font-family: 'DejaVu Sans'; text-anchor: middle" x="182.8398" y="328.522442" transform="rotate(-0 182.8398 328.522442)">260</text>
     </g>
    </g>
    <g id="xtick_2">
     <g id="line2d_3">
      <path d="M 324.675161 313.16502 
L 324.675161 136.08 
" clip-path="url(#p65ed02f756)" style="fill: none; stroke: #e4e1e3; stroke-opacity: 0.9; stroke-width: 0.7; stroke-linecap: square"/>
     </g>
     <g id="line2d_4">
      <g>
       <use xlink:href="#m0898925bd8" x="324.675161" y="313.16502" style="stroke: #000000; stroke-width: 0.8"/>
      </g>
     </g>
     <g id="text_2">
      <text style="font-size: 11px; font-family: 'DejaVu Sans'; text-anchor: middle" x="324.675161" y="328.522442" transform="rotate(-0 324.675161 328.522442)">280</text>
     </g>
    </g>
    <g id="xtick_3">
     <g id="line2d_5">
      <path d="M 466.510523 313.16502 
L 466.510523 136.08 
" clip-path="url(#p65ed02f756)" style="fill: none; stroke: #e4e1e3; stroke-opacity: 0.9; stroke-width: 0.7; stroke-linecap: square"/>
     </g>
     <g id="line2d_6">
      <g>
       <use xlink:href="#m0898925bd8" x="466.510523" y="313.16502" style="stroke: #000000; stroke-width: 0.8"/>
      </g>
     </g>
     <g id="text_3">
      <text style="font-size: 11px; font-family: 'DejaVu Sans'; text-anchor: middle" x="466.510523" y="328.522442" transform="rotate(-0 466.510523 328.522442)">300</text>
     </g>
    </g>
    <g id="xtick_4">
     <g id="line2d_7">
      <path d="M 608.345884 313.16502 
L 608.345884 136.08 
" clip-path="url(#p65ed02f756)" style="fill: none; stroke: #e4e1e3; stroke-opacity: 0.9; stroke-width: 0.7; stroke-linecap: square"/>
     </g>
     <g id="line2d_8">
      <g>
       <use xlink:href="#m0898925bd8" x="608.345884" y="313.16502" style="stroke: #000000; stroke-width: 0.8"/>
      </g>
     </g>
     <g id="text_4">
      <text style="font-size: 11px; font-family: 'DejaVu Sans'; text-anchor: middle" x="608.345884" y="328.522442" transform="rotate(-0 608.345884 328.522442)">320</text>
     </g>
    </g>
    <g id="xtick_5">
     <g id="line2d_9">
      <path d="M 750.181246 313.16502 
L 750.181246 136.08 
" clip-path="url(#p65ed02f756)" style="fill: none; stroke: #e4e1e3; stroke-opacity: 0.9; stroke-width: 0.7; stroke-linecap: square"/>
     </g>
     <g id="line2d_10">
      <g>
       <use xlink:href="#m0898925bd8" x="750.181246" y="313.16502" style="stroke: #000000; stroke-width: 0.8"/>
      </g>
     </g>
     <g id="text_5">
      <text style="font-size: 11px; font-family: 'DejaVu Sans'; text-anchor: middle" x="750.181246" y="328.522442" transform="rotate(-0 750.181246 328.522442)">340</text>
     </g>
    </g>
    <g id="xtick_6">
     <g id="line2d_11">
      <path d="M 892.016607 313.16502 
L 892.016607 136.08 
" clip-path="url(#p65ed02f756)" style="fill: none; stroke: #e4e1e3; stroke-opacity: 0.9; stroke-width: 0.7; stroke-linecap: square"/>
     </g>
     <g id="line2d_12">
      <g>
       <use xlink:href="#m0898925bd8" x="892.016607" y="313.16502" style="stroke: #000000; stroke-width: 0.8"/>
      </g>
     </g>
     <g id="text_6">
      <text style="font-size: 11px; font-family: 'DejaVu Sans'; text-anchor: middle" x="892.016607" y="328.522442" transform="rotate(-0 892.016607 328.522442)">360</text>
     </g>
    </g>
    <g id="xtick_7">
     <g id="line2d_13">
      <path d="M 1033.851969 313.16502 
L 1033.851969 136.08 
" clip-path="url(#p65ed02f756)" style="fill: none; stroke: #e4e1e3; stroke-opacity: 0.9; stroke-width: 0.7; stroke-linecap: square"/>
     </g>
     <g id="line2d_14">
      <g>
       <use xlink:href="#m0898925bd8" x="1033.851969" y="313.16502" style="stroke: #000000; stroke-width: 0.8"/>
      </g>
     </g>
     <g id="text_7">
      <text style="font-size: 11px; font-family: 'DejaVu Sans'; text-anchor: middle" x="1033.851969" y="328.522442" transform="rotate(-0 1033.851969 328.522442)">380</text>
     </g>
    </g>
    <g id="text_8">
     <text style="font-size: 13px; font-family: 'DejaVu Sans'; text-anchor: middle; fill: #252525" x="604.8" y="345.042989" transform="rotate(-0 604.8 345.042989)">Input sample index j, compared with y[j+384]</text>
    </g>
   </g>
   <g id="matplotlib.axis_2">
    <g id="ytick_1">
     <g id="line2d_15">
      <path d="M 109.44 313.16502 
L 1100.16 313.16502 
" clip-path="url(#p65ed02f756)" style="fill: none; stroke: #e4e1e3; stroke-opacity: 0.9; stroke-width: 0.7; stroke-linecap: square"/>
     </g>
     <g id="line2d_16">
      <defs>
       <path id="m229a20e453" d="M 0 0 
L -3.5 0 
" style="stroke: #000000; stroke-width: 0.8"/>
      </defs>
      <g>
       <use xlink:href="#m229a20e453" x="109.44" y="313.16502" style="stroke: #000000; stroke-width: 0.8"/>
      </g>
     </g>
     <g id="text_9">
      <text style="font-size: 11px; font-family: 'DejaVu Sans'; text-anchor: end" x="102.44" y="317.343731" transform="rotate(-0 102.44 317.343731)">−750</text>
     </g>
    </g>
    <g id="ytick_2">
     <g id="line2d_17">
      <path d="M 109.44 287.123106 
L 1100.16 287.123106 
" clip-path="url(#p65ed02f756)" style="fill: none; stroke: #e4e1e3; stroke-opacity: 0.9; stroke-width: 0.7; stroke-linecap: square"/>
     </g>
     <g id="line2d_18">
      <g>
       <use xlink:href="#m229a20e453" x="109.44" y="287.123106" style="stroke: #000000; stroke-width: 0.8"/>
      </g>
     </g>
     <g id="text_10">
      <text style="font-size: 11px; font-family: 'DejaVu Sans'; text-anchor: end" x="102.44" y="291.301816" transform="rotate(-0 102.44 291.301816)">−500</text>
     </g>
    </g>
    <g id="ytick_3">
     <g id="line2d_19">
      <path d="M 109.44 261.081191 
L 1100.16 261.081191 
" clip-path="url(#p65ed02f756)" style="fill: none; stroke: #e4e1e3; stroke-opacity: 0.9; stroke-width: 0.7; stroke-linecap: square"/>
     </g>
     <g id="line2d_20">
      <g>
       <use xlink:href="#m229a20e453" x="109.44" y="261.081191" style="stroke: #000000; stroke-width: 0.8"/>
      </g>
     </g>
     <g id="text_11">
      <text style="font-size: 11px; font-family: 'DejaVu Sans'; text-anchor: end" x="102.44" y="265.259902" transform="rotate(-0 102.44 265.259902)">−250</text>
     </g>
    </g>
    <g id="ytick_4">
     <g id="line2d_21">
      <path d="M 109.44 235.039276 
L 1100.16 235.039276 
" clip-path="url(#p65ed02f756)" style="fill: none; stroke: #e4e1e3; stroke-opacity: 0.9; stroke-width: 0.7; stroke-linecap: square"/>
     </g>
     <g id="line2d_22">
      <g>
       <use xlink:href="#m229a20e453" x="109.44" y="235.039276" style="stroke: #000000; stroke-width: 0.8"/>
      </g>
     </g>
     <g id="text_12">
      <text style="font-size: 11px; font-family: 'DejaVu Sans'; text-anchor: end" x="102.44" y="239.217987" transform="rotate(-0 102.44 239.217987)">0</text>
     </g>
    </g>
    <g id="ytick_5">
     <g id="line2d_23">
      <path d="M 109.44 208.997361 
L 1100.16 208.997361 
" clip-path="url(#p65ed02f756)" style="fill: none; stroke: #e4e1e3; stroke-opacity: 0.9; stroke-width: 0.7; stroke-linecap: square"/>
     </g>
     <g id="line2d_24">
      <g>
       <use xlink:href="#m229a20e453" x="109.44" y="208.997361" style="stroke: #000000; stroke-width: 0.8"/>
      </g>
     </g>
     <g id="text_13">
      <text style="font-size: 11px; font-family: 'DejaVu Sans'; text-anchor: end" x="102.44" y="213.176072" transform="rotate(-0 102.44 213.176072)">250</text>
     </g>
    </g>
    <g id="ytick_6">
     <g id="line2d_25">
      <path d="M 109.44 182.955447 
L 1100.16 182.955447 
" clip-path="url(#p65ed02f756)" style="fill: none; stroke: #e4e1e3; stroke-opacity: 0.9; stroke-width: 0.7; stroke-linecap: square"/>
     </g>
     <g id="line2d_26">
      <g>
       <use xlink:href="#m229a20e453" x="109.44" y="182.955447" style="stroke: #000000; stroke-width: 0.8"/>
      </g>
     </g>
     <g id="text_14">
      <text style="font-size: 11px; font-family: 'DejaVu Sans'; text-anchor: end" x="102.44" y="187.134157" transform="rotate(-0 102.44 187.134157)">500</text>
     </g>
    </g>
    <g id="ytick_7">
     <g id="line2d_27">
      <path d="M 109.44 156.913532 
L 1100.16 156.913532 
" clip-path="url(#p65ed02f756)" style="fill: none; stroke: #e4e1e3; stroke-opacity: 0.9; stroke-width: 0.7; stroke-linecap: square"/>
     </g>
     <g id="line2d_28">
      <g>
       <use xlink:href="#m229a20e453" x="109.44" y="156.913532" style="stroke: #000000; stroke-width: 0.8"/>
      </g>
     </g>
     <g id="text_15">
      <text style="font-size: 11px; font-family: 'DejaVu Sans'; text-anchor: end" x="102.44" y="161.092243" transform="rotate(-0 102.44 161.092243)">750</text>
     </g>
    </g>
    <g id="text_16">
     <text style="font-size: 13px; font-family: 'DejaVu Sans'; text-anchor: middle; fill: #252525" x="65.103047" y="224.62251" transform="rotate(-90 65.103047 224.62251)">Sample code (LSB)</text>
    </g>
   </g>
   <g id="line2d_29">
    <path d="M 154.472727 228.685049 
L 161.564495 202.955637 
L 168.656263 183.997123 
L 175.748031 174.934537 
L 182.8398 176.705387 
L 189.931568 188.163829 
L 197.023336 206.39317 
L 204.115104 227.539205 
L 211.206872 247.74773 
L 218.29864 264.102053 
L 225.390408 274.622986 
L 232.482176 278.789693 
L 239.573944 277.227178 
L 246.665712 270.977118 
L 253.75748 261.393694 
L 260.849248 249.518581 
L 267.941016 236.497623 
L 275.032785 222.955828 
L 282.124553 209.93487 
L 289.216321 198.788931 
L 296.308089 191.080524 
L 303.399857 188.5805 
L 310.491625 192.747206 
L 317.583393 203.997314 
L 324.675161 221.809983 
L 331.766929 243.581024 
L 338.858697 265.977071 
L 345.950465 284.727249 
L 353.042233 295.873189 
L 360.134001 296.602362 
L 367.22577 285.873094 
L 374.317538 265.456232 
L 381.409306 238.789312 
L 388.501074 210.976547 
L 395.592842 187.330488 
L 402.68461 172.642848 
L 409.776378 169.413651 
L 416.868146 178.163734 
L 423.959914 196.809745 
L 431.051682 221.289145 
L 438.14345 246.810221 
L 445.235218 268.68543 
L 452.326986 283.37307 
L 459.418754 288.998123 
L 466.510523 285.664758 
L 473.602291 275.039657 
L 480.694059 259.831179 
L 487.785827 242.85185 
L 494.877595 226.705863 
L 501.969363 213.164068 
L 509.061131 203.163972 
L 516.152899 197.122248 
L 523.244667 195.038895 
L 530.336435 196.913913 
L 537.428203 202.955637 
L 544.519971 212.851565 
L 551.611739 226.497528 
L 558.703508 242.747683 
L 565.795276 259.831179 
L 572.887044 275.247992 
L 579.978812 285.873094 
L 587.07058 289.206459 
L 594.162348 283.581405 
L 601.254116 268.789598 
L 608.345884 246.706054 
L 615.437652 221.08081 
L 622.52942 196.60141 
L 629.621188 177.955399 
L 636.712956 169.309483 
L 643.804724 172.642848 
L 650.896492 187.538824 
L 657.988261 211.184882 
L 665.080029 238.997647 
L 672.171797 265.664568 
L 679.263565 285.977261 
L 686.355333 296.498195 
L 693.447101 295.664854 
L 700.538869 284.518914 
L 707.630637 265.768735 
L 714.722405 243.476856 
L 721.814173 221.809983 
L 728.905941 204.205649 
L 735.997709 192.955542 
L 743.089477 188.788835 
L 750.181246 191.184692 
L 757.273014 198.788931 
L 764.364782 209.830703 
L 771.45655 222.747492 
L 778.548318 236.18512 
L 785.640086 249.310245 
L 792.731854 261.289526 
L 799.823622 270.977118 
L 806.91539 277.331346 
L 814.007158 278.998028 
L 821.098926 274.831322 
L 828.190694 264.206221 
L 835.282462 247.851898 
L 842.37423 227.435037 
L 849.465999 206.184834 
L 856.557767 187.955494 
L 863.649535 176.497052 
L 870.741303 174.830369 
L 877.833071 183.997123 
L 884.924839 203.059805 
L 892.016607 228.893384 
L 899.108375 256.601981 
L 906.200143 280.768878 
L 913.291911 296.810698 
L 920.383679 301.394075 
L 927.475447 293.894003 
L 934.567215 275.872998 
L 941.658984 251.185263 
L 948.750752 224.62251 
L 955.84252 201.393122 
L 962.934288 185.351303 
L 970.026056 178.684573 
L 977.117824 181.809602 
L 984.209592 192.955542 
L 991.30136 209.414032 
L 998.393128 227.851708 
L 1005.484896 245.247707 
L 1012.576664 259.518676 
L 1019.668432 269.414603 
L 1026.7602 274.622986 
L 1033.851969 275.247992 
L 1040.943737 271.914627 
L 1048.035505 264.935394 
L 1055.127273 254.622796 
L 1055.127273 254.622796 
" clip-path="url(#p65ed02f756)" style="fill: none; stroke: #777a80; stroke-width: 2.3; stroke-linecap: square"/>
   </g>
   <g id="line2d_30">
    <path d="M 154.472727 228.268378 
L 161.564495 202.747302 
L 168.656263 184.101291 
L 175.748031 175.351207 
L 182.8398 177.538728 
L 189.931568 189.309674 
L 197.023336 207.643182 
L 204.115104 228.580881 
L 211.206872 248.476904 
L 218.29864 264.102053 
L 225.390408 273.99798 
L 232.482176 277.643849 
L 239.573944 275.768831 
L 246.665712 269.622939 
L 253.75748 260.352017 
L 260.849248 249.10191 
L 267.941016 236.705959 
L 275.032785 223.685001 
L 282.124553 210.976547 
L 289.216321 199.830607 
L 296.308089 191.913865 
L 303.399857 189.101338 
L 310.491625 192.955542 
L 317.583393 203.997314 
L 324.675161 221.49748 
L 331.766929 243.268521 
L 338.858697 265.664568 
L 345.950465 284.414746 
L 353.042233 295.560686 
L 360.134001 296.081524 
L 367.22577 285.456423 
L 374.317538 265.039562 
L 381.409306 238.580976 
L 388.501074 210.976547 
L 395.592842 187.747159 
L 402.68461 173.163687 
L 409.776378 170.142824 
L 416.868146 178.684573 
L 423.959914 197.01808 
L 431.051682 221.08081 
L 438.14345 246.289383 
L 445.235218 267.956256 
L 452.326986 282.748064 
L 459.418754 288.68562 
L 466.510523 285.977261 
L 473.602291 275.872998 
L 480.694059 260.977023 
L 487.785827 244.101862 
L 494.877595 227.539205 
L 501.969363 213.268235 
L 509.061131 202.434799 
L 516.152899 195.559733 
L 523.244667 193.163877 
L 530.336435 195.143063 
L 537.428203 201.601457 
L 544.519971 212.434894 
L 551.611739 227.122534 
L 558.703508 244.20603 
L 565.795276 261.810364 
L 572.887044 277.12301 
L 579.978812 287.331441 
L 587.07058 289.935632 
L 594.162348 283.37307 
L 601.254116 267.956256 
L 608.345884 245.664377 
L 615.437652 220.039133 
L 622.52942 195.768069 
L 629.621188 177.642896 
L 636.712956 169.309483 
L 643.804724 172.851184 
L 650.896492 187.642991 
L 657.988261 211.184882 
L 665.080029 238.789312 
L 672.171797 265.247897 
L 679.263565 285.560591 
L 686.355333 296.289859 
L 693.447101 295.977357 
L 700.538869 285.14392 
L 707.630637 266.706244 
L 714.722405 244.414365 
L 721.814173 222.539157 
L 728.905941 204.518152 
L 735.997709 192.851374 
L 743.089477 188.267997 
L 750.181246 190.455518 
L 757.273014 197.955589 
L 764.364782 209.205697 
L 771.45655 222.434989 
L 778.548318 236.18512 
L 785.640086 249.518581 
L 792.731854 261.497861 
L 799.823622 271.185454 
L 806.91539 277.331346 
L 814.007158 278.89386 
L 821.098926 274.727154 
L 828.190694 264.206221 
L 835.282462 247.956066 
L 842.37423 227.74754 
L 849.465999 206.601505 
L 856.557767 188.372165 
L 863.649535 176.809555 
L 870.741303 174.830369 
L 877.833071 183.892955 
L 884.924839 202.747302 
L 892.016607 228.580881 
L 899.108375 256.393646 
L 906.200143 280.768878 
L 913.291911 296.914865 
L 920.383679 301.60241 
L 927.475447 293.894003 
L 934.567215 275.664663 
L 941.658984 250.664425 
L 948.750752 223.893337 
L 955.84252 200.663949 
L 962.934288 184.830464 
L 970.026056 178.78874 
L 977.117824 182.538776 
L 984.209592 194.309721 
L 991.30136 210.976547 
L 998.393128 229.310055 
L 1005.484896 246.185216 
L 1012.576664 259.622844 
L 1019.668432 268.477095 
L 1026.7602 272.852136 
L 1033.851969 273.164639 
L 1040.943737 269.831274 
L 1048.035505 263.372879 
L 1055.127273 253.99779 
L 1055.127273 253.99779 
" clip-path="url(#p65ed02f756)" style="fill: none; stroke-dasharray: 6.66,2.88; stroke-dashoffset: 0; stroke: #8c1d40; stroke-width: 1.8"/>
   </g>
   <g id="line2d_31">
    <path d="M 154.472727 235.039276 
L 161.564495 221.809983 
L 168.656263 210.351541 
L 175.748031 202.538966 
L 182.8398 199.413937 
L 189.931568 201.809793 
L 197.023336 209.309864 
L 204.115104 220.976642 
L 211.206872 235.039276 
L 218.29864 249.414413 
L 225.390408 261.810364 
L 232.482176 270.352112 
L 239.573944 273.685477 
L 246.665712 270.977118 
L 253.75748 262.852041 
L 260.849248 250.143587 
L 267.941016 235.039276 
L 275.032785 219.622462 
L 282.124553 206.289002 
L 289.216321 197.226416 
L 296.308089 193.788883 
L 303.399857 196.705578 
L 310.491625 205.455661 
L 317.583393 218.893289 
L 331.766929 251.393598 
L 338.858697 265.352065 
L 345.950465 274.935489 
L 353.042233 278.47719 
L 360.134001 275.35216 
L 367.22577 266.081238 
L 374.317538 251.914437 
L 388.501074 217.95578 
L 395.592842 203.372308 
L 402.68461 193.372212 
L 409.776378 189.830512 
L 416.868146 193.059709 
L 423.959914 202.747302 
L 431.051682 217.539109 
L 445.235218 252.747778 
L 452.326986 267.747921 
L 459.418754 277.956352 
L 466.510523 281.60222 
L 473.602291 278.268854 
L 480.694059 268.164592 
L 487.785827 253.060281 
L 501.969363 216.914103 
L 509.061131 201.601457 
L 516.152899 191.184692 
L 523.244667 187.538824 
L 530.336435 191.080524 
L 537.428203 201.288955 
L 544.519971 216.809936 
L 558.703508 253.372784 
L 565.795276 268.893765 
L 572.887044 279.310531 
L 579.978812 283.060567 
L 587.07058 279.414699 
L 594.162348 268.997933 
L 601.254116 253.372784 
L 615.437652 216.705768 
L 622.52942 201.080619 
L 629.621188 190.663853 
L 636.712956 187.017985 
L 643.804724 190.768021 
L 650.896492 201.184787 
L 657.988261 216.705768 
L 672.171797 253.268616 
L 679.263565 268.789598 
L 686.355333 278.998028 
L 693.447101 282.539729 
L 700.538869 278.89386 
L 707.630637 268.477095 
L 714.722405 253.060281 
L 728.905941 217.018271 
L 735.997709 201.91396 
L 743.089477 191.913865 
L 750.181246 188.476332 
L 757.273014 192.122201 
L 764.364782 202.330631 
L 771.45655 217.434942 
L 785.640086 252.539443 
L 792.731854 267.227083 
L 799.823622 277.018843 
L 806.91539 280.24804 
L 814.007158 276.602172 
L 821.098926 266.706244 
L 828.190694 252.122772 
L 842.37423 218.164115 
L 849.465999 203.997314 
L 856.557767 194.726392 
L 863.649535 191.601362 
L 870.741303 195.143063 
L 877.833071 204.726487 
L 884.924839 218.684954 
L 892.016607 235.039276 
L 899.108375 251.081095 
L 906.200143 264.518724 
L 913.291911 273.372975 
L 920.383679 276.185501 
L 927.475447 272.747969 
L 934.567215 263.685382 
L 941.658984 250.45609 
L 948.750752 235.039276 
L 955.84252 219.934965 
L 962.934288 207.330679 
L 970.026056 199.101434 
L 977.117824 196.497242 
L 984.209592 199.72644 
L 991.30136 208.268188 
L 998.393128 220.664139 
L 1005.484896 235.039276 
L 1012.576664 249.10191 
L 1019.668432 260.768688 
L 1026.7602 268.268759 
L 1033.851969 270.560448 
L 1040.943737 267.539586 
L 1048.035505 259.622844 
L 1055.127273 248.164401 
L 1055.127273 248.164401 
" clip-path="url(#p65ed02f756)" style="fill: none; stroke-dasharray: 11.52,2.88,1.8,2.88; stroke-dashoffset: 0; stroke: #b08100; stroke-width: 1.8"/>
   </g>
   <g id="patch_3">
    <path d="M 109.44 313.16502 
L 109.44 136.08 
" style="fill: none; stroke: #aaa4a7; stroke-width: 0.8; stroke-linejoin: miter; stroke-linecap: square"/>
   </g>
   <g id="patch_4">
    <path d="M 109.44 313.16502 
L 1100.16 313.16502 
" style="fill: none; stroke: #aaa4a7; stroke-width: 0.8; stroke-linejoin: miter; stroke-linecap: square"/>
   </g>
   <g id="legend_1">
    <g id="line2d_32">
     <path d="M 598.565156 150.488281 
L 609.565156 150.488281 
L 620.565156 150.488281 
" style="fill: none; stroke: #777a80; stroke-width: 2.3; stroke-linecap: square"/>
    </g>
    <g id="text_17">
     <text style="font-size: 11px; font-family: 'DejaVu Sans'; text-anchor: start; fill: #252525" x="629.365156" y="154.338281" transform="rotate(-0 629.365156 154.338281)">Input (baseline output is identical)</text>
    </g>
    <g id="line2d_33">
     <path d="M 840.549687 150.488281 
L 851.549687 150.488281 
L 862.549687 150.488281 
" style="fill: none; stroke-dasharray: 6.66,2.88; stroke-dashoffset: 0; stroke: #8c1d40; stroke-width: 1.8"/>
    </g>
    <g id="text_18">
     <text style="font-size: 11px; font-family: 'DejaVu Sans'; text-anchor: start; fill: #252525" x="871.349687" y="154.338281" transform="rotate(-0 871.349687 154.338281)">THR2 = 10^11</text>
    </g>
    <g id="line2d_34">
     <path d="M 976.404844 150.488281 
L 987.404844 150.488281 
L 998.404844 150.488281 
" style="fill: none; stroke-dasharray: 11.52,2.88,1.8,2.88; stroke-dashoffset: 0; stroke: #b08100; stroke-width: 1.8"/>
    </g>
    <g id="text_19">
     <text style="font-size: 11px; font-family: 'DejaVu Sans'; text-anchor: start; fill: #252525" x="1007.204844" y="154.338281" transform="rotate(-0 1007.204844 154.338281)">THR2 = 10^13</text>
    </g>
   </g>
  </g>
  <g id="axes_2">
   <g id="patch_5">
    <path d="M 109.44 573.48 
L 1100.16 573.48 
L 1100.16 396.39498 
L 109.44 396.39498 
z
" style="fill: #ffffff"/>
   </g>
   <g id="patch_6">
    <path d="M 109.44 573.48 
L 357.281355 573.48 
L 357.281355 396.39498 
L 109.44 396.39498 
z
" clip-path="url(#p868fff8033)" style="fill: #777a80; opacity: 0.1; stroke: #777a80; stroke-linejoin: miter"/>
   </g>
   <g id="patch_7">
    <path d="M 1018.191635 573.48 
L 1100.16 573.48 
L 1100.16 396.39498 
L 1018.191635 396.39498 
z
" clip-path="url(#p868fff8033)" style="fill: #777a80; opacity: 0.1; stroke: #777a80; stroke-linejoin: miter"/>
   </g>
   <g id="matplotlib.axis_3">
    <g id="xtick_8">
     <g id="line2d_35">
      <path d="M 109.44 573.48 
L 109.44 396.39498 
" clip-path="url(#p868fff8033)" style="fill: none; stroke: #e4e1e3; stroke-opacity: 0.9; stroke-width: 0.7; stroke-linecap: square"/>
     </g>
     <g id="line2d_36">
      <g>
       <use xlink:href="#m0898925bd8" x="109.44" y="573.48" style="stroke: #000000; stroke-width: 0.8"/>
      </g>
     </g>
     <g id="text_20">
      <text style="font-size: 11px; font-family: 'DejaVu Sans'; text-anchor: middle" x="109.44" y="588.837422" transform="rotate(-0 109.44 588.837422)">0</text>
     </g>
    </g>
    <g id="xtick_9">
     <g id="line2d_37">
      <path d="M 238.524039 573.48 
L 238.524039 396.39498 
" clip-path="url(#p868fff8033)" style="fill: none; stroke: #e4e1e3; stroke-opacity: 0.9; stroke-width: 0.7; stroke-linecap: square"/>
     </g>
     <g id="line2d_38">
      <g>
       <use xlink:href="#m0898925bd8" x="238.524039" y="573.48" style="stroke: #000000; stroke-width: 0.8"/>
      </g>
     </g>
     <g id="text_21">
      <text style="font-size: 11px; font-family: 'DejaVu Sans'; text-anchor: middle" x="238.524039" y="588.837422" transform="rotate(-0 238.524039 588.837422)">200</text>
     </g>
    </g>
    <g id="xtick_10">
     <g id="line2d_39">
      <path d="M 367.608078 573.48 
L 367.608078 396.39498 
" clip-path="url(#p868fff8033)" style="fill: none; stroke: #e4e1e3; stroke-opacity: 0.9; stroke-width: 0.7; stroke-linecap: square"/>
     </g>
     <g id="line2d_40">
      <g>
       <use xlink:href="#m0898925bd8" x="367.608078" y="573.48" style="stroke: #000000; stroke-width: 0.8"/>
      </g>
     </g>
     <g id="text_22">
      <text style="font-size: 11px; font-family: 'DejaVu Sans'; text-anchor: middle" x="367.608078" y="588.837422" transform="rotate(-0 367.608078 588.837422)">400</text>
     </g>
    </g>
    <g id="xtick_11">
     <g id="line2d_41">
      <path d="M 496.692117 573.48 
L 496.692117 396.39498 
" clip-path="url(#p868fff8033)" style="fill: none; stroke: #e4e1e3; stroke-opacity: 0.9; stroke-width: 0.7; stroke-linecap: square"/>
     </g>
     <g id="line2d_42">
      <g>
       <use xlink:href="#m0898925bd8" x="496.692117" y="573.48" style="stroke: #000000; stroke-width: 0.8"/>
      </g>
     </g>
     <g id="text_23">
      <text style="font-size: 11px; font-family: 'DejaVu Sans'; text-anchor: middle" x="496.692117" y="588.837422" transform="rotate(-0 496.692117 588.837422)">600</text>
     </g>
    </g>
    <g id="xtick_12">
     <g id="line2d_43">
      <path d="M 625.776156 573.48 
L 625.776156 396.39498 
" clip-path="url(#p868fff8033)" style="fill: none; stroke: #e4e1e3; stroke-opacity: 0.9; stroke-width: 0.7; stroke-linecap: square"/>
     </g>
     <g id="line2d_44">
      <g>
       <use xlink:href="#m0898925bd8" x="625.776156" y="573.48" style="stroke: #000000; stroke-width: 0.8"/>
      </g>
     </g>
     <g id="text_24">
      <text style="font-size: 11px; font-family: 'DejaVu Sans'; text-anchor: middle" x="625.776156" y="588.837422" transform="rotate(-0 625.776156 588.837422)">800</text>
     </g>
    </g>
    <g id="xtick_13">
     <g id="line2d_45">
      <path d="M 754.860195 573.48 
L 754.860195 396.39498 
" clip-path="url(#p868fff8033)" style="fill: none; stroke: #e4e1e3; stroke-opacity: 0.9; stroke-width: 0.7; stroke-linecap: square"/>
     </g>
     <g id="line2d_46">
      <g>
       <use xlink:href="#m0898925bd8" x="754.860195" y="573.48" style="stroke: #000000; stroke-width: 0.8"/>
      </g>
     </g>
     <g id="text_25">
      <text style="font-size: 11px; font-family: 'DejaVu Sans'; text-anchor: middle" x="754.860195" y="588.837422" transform="rotate(-0 754.860195 588.837422)">1000</text>
     </g>
    </g>
    <g id="xtick_14">
     <g id="line2d_47">
      <path d="M 883.944235 573.48 
L 883.944235 396.39498 
" clip-path="url(#p868fff8033)" style="fill: none; stroke: #e4e1e3; stroke-opacity: 0.9; stroke-width: 0.7; stroke-linecap: square"/>
     </g>
     <g id="line2d_48">
      <g>
       <use xlink:href="#m0898925bd8" x="883.944235" y="573.48" style="stroke: #000000; stroke-width: 0.8"/>
      </g>
     </g>
     <g id="text_26">
      <text style="font-size: 11px; font-family: 'DejaVu Sans'; text-anchor: middle" x="883.944235" y="588.837422" transform="rotate(-0 883.944235 588.837422)">1200</text>
     </g>
    </g>
    <g id="xtick_15">
     <g id="line2d_49">
      <path d="M 1013.028274 573.48 
L 1013.028274 396.39498 
" clip-path="url(#p868fff8033)" style="fill: none; stroke: #e4e1e3; stroke-opacity: 0.9; stroke-width: 0.7; stroke-linecap: square"/>
     </g>
     <g id="line2d_50">
      <g>
       <use xlink:href="#m0898925bd8" x="1013.028274" y="573.48" style="stroke: #000000; stroke-width: 0.8"/>
      </g>
     </g>
     <g id="text_27">
      <text style="font-size: 11px; font-family: 'DejaVu Sans'; text-anchor: middle" x="1013.028274" y="588.837422" transform="rotate(-0 1013.028274 588.837422)">1400</text>
     </g>
    </g>
    <g id="text_28">
     <text style="font-size: 13px; font-family: 'DejaVu Sans'; text-anchor: middle; fill: #252525" x="604.8" y="605.357969" transform="rotate(-0 604.8 605.357969)">Output sample index n (including startup and tail)</text>
    </g>
   </g>
   <g id="matplotlib.axis_4">
    <g id="ytick_8">
     <g id="line2d_51">
      <path d="M 109.44 552.015149 
L 1100.16 552.015149 
" clip-path="url(#p868fff8033)" style="fill: none; stroke: #e4e1e3; stroke-opacity: 0.9; stroke-width: 0.7; stroke-linecap: square"/>
     </g>
     <g id="line2d_52">
      <g>
       <use xlink:href="#m229a20e453" x="109.44" y="552.015149" style="stroke: #000000; stroke-width: 0.8"/>
      </g>
     </g>
     <g id="text_29">
      <text style="font-size: 11px; font-family: 'DejaVu Sans'; text-anchor: end" x="102.44" y="556.19386" transform="rotate(-0 102.44 556.19386)">−500</text>
     </g>
    </g>
    <g id="ytick_9">
     <g id="line2d_53">
      <path d="M 109.44 525.184085 
L 1100.16 525.184085 
" clip-path="url(#p868fff8033)" style="fill: none; stroke: #e4e1e3; stroke-opacity: 0.9; stroke-width: 0.7; stroke-linecap: square"/>
     </g>
     <g id="line2d_54">
      <g>
       <use xlink:href="#m229a20e453" x="109.44" y="525.184085" style="stroke: #000000; stroke-width: 0.8"/>
      </g>
     </g>
     <g id="text_30">
      <text style="font-size: 11px; font-family: 'DejaVu Sans'; text-anchor: end" x="102.44" y="529.362796" transform="rotate(-0 102.44 529.362796)">−250</text>
     </g>
    </g>
    <g id="ytick_10">
     <g id="line2d_55">
      <path d="M 109.44 498.353022 
L 1100.16 498.353022 
" clip-path="url(#p868fff8033)" style="fill: none; stroke: #e4e1e3; stroke-opacity: 0.9; stroke-width: 0.7; stroke-linecap: square"/>
     </g>
     <g id="line2d_56">
      <g>
       <use xlink:href="#m229a20e453" x="109.44" y="498.353022" style="stroke: #000000; stroke-width: 0.8"/>
      </g>
     </g>
     <g id="text_31">
      <text style="font-size: 11px; font-family: 'DejaVu Sans'; text-anchor: end" x="102.44" y="502.531733" transform="rotate(-0 102.44 502.531733)">0</text>
     </g>
    </g>
    <g id="ytick_11">
     <g id="line2d_57">
      <path d="M 109.44 471.521958 
L 1100.16 471.521958 
" clip-path="url(#p868fff8033)" style="fill: none; stroke: #e4e1e3; stroke-opacity: 0.9; stroke-width: 0.7; stroke-linecap: square"/>
     </g>
     <g id="line2d_58">
      <g>
       <use xlink:href="#m229a20e453" x="109.44" y="471.521958" style="stroke: #000000; stroke-width: 0.8"/>
      </g>
     </g>
     <g id="text_32">
      <text style="font-size: 11px; font-family: 'DejaVu Sans'; text-anchor: end" x="102.44" y="475.700669" transform="rotate(-0 102.44 475.700669)">250</text>
     </g>
    </g>
    <g id="ytick_12">
     <g id="line2d_59">
      <path d="M 109.44 444.690894 
L 1100.16 444.690894 
" clip-path="url(#p868fff8033)" style="fill: none; stroke: #e4e1e3; stroke-opacity: 0.9; stroke-width: 0.7; stroke-linecap: square"/>
     </g>
     <g id="line2d_60">
      <g>
       <use xlink:href="#m229a20e453" x="109.44" y="444.690894" style="stroke: #000000; stroke-width: 0.8"/>
      </g>
     </g>
     <g id="text_33">
      <text style="font-size: 11px; font-family: 'DejaVu Sans'; text-anchor: end" x="102.44" y="448.869605" transform="rotate(-0 102.44 448.869605)">500</text>
     </g>
    </g>
    <g id="ytick_13">
     <g id="line2d_61">
      <path d="M 109.44 417.859831 
L 1100.16 417.859831 
" clip-path="url(#p868fff8033)" style="fill: none; stroke: #e4e1e3; stroke-opacity: 0.9; stroke-width: 0.7; stroke-linecap: square"/>
     </g>
     <g id="line2d_62">
      <g>
       <use xlink:href="#m229a20e453" x="109.44" y="417.859831" style="stroke: #000000; stroke-width: 0.8"/>
      </g>
     </g>
     <g id="text_34">
      <text style="font-size: 11px; font-family: 'DejaVu Sans'; text-anchor: end" x="102.44" y="422.038542" transform="rotate(-0 102.44 422.038542)">750</text>
     </g>
    </g>
    <g id="text_35">
     <text style="font-size: 13px; font-family: 'DejaVu Sans'; text-anchor: middle; fill: #252525" x="65.103047" y="484.93749" transform="rotate(-90 65.103047 484.93749)">x[n-384] - y[n] (LSB)</text>
    </g>
   </g>
   <g id="line2d_63">
    <path d="M 109.44 498.353022 
L 281.767192 498.460346 
L 284.994293 498.889643 
L 288.221394 497.8164 
L 289.512235 498.138373 
L 291.448495 498.782319 
L 293.384756 498.353022 
L 294.030176 498.138373 
L 295.321016 498.245697 
L 297.902697 499.640913 
L 299.193537 499.533589 
L 301.129798 498.56767 
L 302.420638 498.460346 
L 304.356899 498.460346 
L 305.647739 497.923725 
L 306.93858 497.387103 
L 307.584 497.387103 
L 308.22942 497.709076 
L 310.165681 499.748237 
L 310.811101 500.07021 
L 311.456521 500.07021 
L 312.101941 499.748237 
L 314.038202 498.245697 
L 314.683622 498.353022 
L 315.329042 498.889643 
L 317.265303 501.036128 
L 317.910723 500.928804 
L 318.556143 500.284858 
L 319.201564 498.996967 
L 320.492404 495.991888 
L 321.137824 495.240618 
L 321.783244 495.133294 
L 322.428664 495.884564 
L 324.364925 500.177534 
L 325.010345 500.928804 
L 325.655765 500.928804 
L 326.301186 500.284858 
L 327.592026 498.353022 
L 328.237446 497.923725 
L 328.882866 498.138373 
L 329.528287 499.104291 
L 330.819127 501.465425 
L 331.464547 502.216695 
L 332.109967 502.324019 
L 332.755388 501.572749 
L 334.691648 497.279779 
L 335.337068 496.313861 
L 335.982489 495.991888 
L 337.273329 496.528509 
L 337.918749 496.957806 
L 338.564169 497.065131 
L 340.50043 496.421185 
L 341.14585 496.850482 
L 341.79127 498.031049 
L 343.082111 501.680074 
L 343.727531 503.504586 
L 344.372951 504.577828 
L 345.018371 504.577828 
L 345.663792 503.504586 
L 346.954632 500.07021 
L 347.600052 498.996967 
L 348.245472 498.889643 
L 348.890893 499.962886 
L 350.181733 502.967965 
L 350.827153 503.182613 
L 351.472573 501.250777 
L 352.117993 496.957806 
L 354.054254 478.283386 
L 354.699674 475.707604 
L 355.345094 477.532116 
L 355.990515 484.293544 
L 356.635935 495.347943 
L 357.281355 502.431343 
L 357.926775 489.552433 
L 358.572195 480.966492 
L 359.217616 477.424792 
L 359.863036 478.39071 
L 360.508456 482.683681 
L 361.799296 493.52343 
L 362.444717 497.279779 
L 363.090137 499.426264 
L 363.735557 499.855561 
L 364.380977 499.426264 
L 365.026397 499.211616 
L 365.671818 499.533589 
L 366.317238 500.714155 
L 367.608078 504.041207 
L 368.253498 505.007126 
L 368.898919 504.899801 
L 369.544339 503.719234 
L 371.480599 497.494428 
L 372.12602 496.528509 
L 372.77144 496.743158 
L 373.41686 497.709076 
L 374.7077 500.284858 
L 375.353121 500.714155 
L 375.998541 500.07021 
L 376.643961 498.460346 
L 377.934801 494.489349 
L 378.580221 493.416106 
L 379.225642 493.416106 
L 379.871062 494.811321 
L 380.516482 496.957806 
L 381.807322 502.109371 
L 382.452743 503.719234 
L 383.098163 504.041207 
L 383.743583 503.289937 
L 384.389003 501.787398 
L 385.679844 498.245697 
L 386.325264 497.279779 
L 386.970684 497.172455 
L 387.616104 497.923725 
L 388.906945 500.07021 
L 389.552365 500.714155 
L 390.197785 500.714155 
L 390.843205 499.855561 
L 392.779466 495.991888 
L 393.424886 495.455267 
L 394.070306 495.455267 
L 394.715726 496.206537 
L 397.297407 500.714155 
L 397.942827 501.036128 
L 398.588248 500.928804 
L 399.879088 500.177534 
L 400.524508 499.640913 
L 402.460769 499.104291 
L 403.751609 498.782319 
L 404.397029 498.56767 
L 405.68787 497.8164 
L 406.33329 497.494428 
L 407.62413 497.494428 
L 410.851231 498.996967 
L 413.432912 499.31894 
L 415.369173 499.31894 
L 418.596274 497.601752 
L 419.887114 497.8164 
L 422.468795 499.533589 
L 423.114215 499.533589 
L 424.405055 498.782319 
L 425.695896 497.709076 
L 426.341316 497.494428 
L 426.986736 497.601752 
L 428.277577 498.56767 
L 428.922997 499.211616 
L 430.213837 499.533589 
L 430.859257 499.104291 
L 432.795518 496.957806 
L 433.440938 496.743158 
L 434.086358 496.957806 
L 434.731779 497.494428 
L 436.668039 500.284858 
L 437.313459 500.606831 
L 437.958879 500.499507 
L 438.6043 499.962886 
L 440.54056 496.957806 
L 441.18598 496.421185 
L 441.831401 496.313861 
L 442.476821 496.743158 
L 444.413081 499.104291 
L 445.058502 499.533589 
L 445.703922 499.533589 
L 446.994762 498.782319 
L 448.285603 498.031049 
L 448.931023 497.8164 
L 449.576443 497.923725 
L 450.867283 498.460346 
L 451.512704 498.674994 
L 452.803544 498.353022 
L 454.739805 497.709076 
L 455.385225 497.709076 
L 457.321485 498.56767 
L 458.612326 498.996967 
L 462.484847 498.353022 
L 463.130267 498.460346 
L 465.066528 498.031049 
L 466.357368 497.709076 
L 467.648208 497.923725 
L 469.584469 498.782319 
L 470.229889 498.889643 
L 471.52073 498.674994 
L 472.16615 498.245697 
L 472.81157 498.031049 
L 473.45699 498.031049 
L 474.747831 498.56767 
L 475.393251 498.996967 
L 476.038671 499.211616 
L 476.684091 499.211616 
L 477.329511 498.889643 
L 479.265772 496.743158 
L 479.911192 496.421185 
L 480.556612 496.528509 
L 481.202033 497.172455 
L 483.138293 500.284858 
L 483.783713 500.82148 
L 484.429134 500.714155 
L 485.074554 500.07021 
L 487.010814 496.850482 
L 487.656235 496.313861 
L 488.301655 496.421185 
L 488.947075 496.957806 
L 489.592495 497.709076 
L 490.237915 498.674994 
L 490.883336 499.31894 
L 491.528756 499.533589 
L 492.819596 498.996967 
L 494.110436 497.923725 
L 494.755857 497.601752 
L 496.046697 497.923725 
L 497.337537 498.782319 
L 498.628378 499.104291 
L 499.919218 498.782319 
L 501.210059 498.138373 
L 503.791739 497.8164 
L 505.728 497.923725 
L 507.664261 498.674994 
L 508.309681 499.104291 
L 509.600521 499.426264 
L 510.891362 498.889643 
L 512.182202 497.923725 
L 512.827622 497.494428 
L 513.473042 497.279779 
L 514.118463 497.279779 
L 516.054723 498.460346 
L 517.345564 498.889643 
L 519.281824 498.674994 
L 521.218085 498.782319 
L 521.863505 498.889643 
L 523.154345 498.56767 
L 526.381446 497.065131 
L 527.672287 497.601752 
L 528.963127 498.996967 
L 529.608547 499.533589 
L 530.253967 499.855561 
L 530.899388 499.748237 
L 531.544808 499.426264 
L 533.481068 497.601752 
L 534.126489 497.279779 
L 534.771909 497.279779 
L 536.062749 497.8164 
L 537.99901 498.674994 
L 540.580691 498.674994 
L 541.226111 498.889643 
L 543.807792 498.353022 
L 544.453212 497.923725 
L 545.744052 497.601752 
L 547.034893 498.138373 
L 548.325733 498.889643 
L 548.971153 499.104291 
L 549.616573 498.996967 
L 550.261993 498.674994 
L 551.552834 497.494428 
L 552.198254 497.172455 
L 552.843674 497.065131 
L 553.489094 497.494428 
L 554.779935 499.104291 
L 555.425355 499.962886 
L 556.070775 500.284858 
L 556.716195 500.177534 
L 557.361616 499.748237 
L 559.297876 496.850482 
L 559.943296 496.313861 
L 560.588717 496.421185 
L 561.234137 496.850482 
L 561.879557 497.601752 
L 562.524977 498.56767 
L 563.170397 499.211616 
L 563.815818 499.426264 
L 564.461238 499.426264 
L 565.106658 499.211616 
L 565.752078 498.674994 
L 567.042919 498.138373 
L 568.979179 498.56767 
L 569.624599 498.782319 
L 570.27002 498.782319 
L 570.91544 498.56767 
L 571.56086 498.031049 
L 572.8517 497.387103 
L 573.497121 497.387103 
L 574.142541 497.601752 
L 576.078801 498.889643 
L 577.369642 499.211616 
L 578.660482 498.674994 
L 579.951322 498.138373 
L 581.242163 498.138373 
L 582.533003 498.460346 
L 583.823844 498.353022 
L 586.405524 497.923725 
L 587.050945 498.031049 
L 587.696365 498.353022 
L 589.632625 498.674994 
L 592.214306 498.138373 
L 595.441407 499.104291 
L 596.086827 498.889643 
L 598.023088 496.957806 
L 598.668508 496.743158 
L 599.313928 496.850482 
L 599.959349 497.387103 
L 600.604769 498.245697 
L 601.895609 500.177534 
L 602.541029 500.499507 
L 603.18645 500.499507 
L 603.83187 499.962886 
L 605.76813 496.957806 
L 606.41355 496.421185 
L 607.058971 496.313861 
L 607.704391 496.743158 
L 609.640651 499.104291 
L 610.286072 499.533589 
L 610.931492 499.533589 
L 612.222332 498.782319 
L 613.513173 498.031049 
L 614.158593 497.8164 
L 614.804013 497.923725 
L 616.094853 498.460346 
L 616.740274 498.674994 
L 618.031114 498.353022 
L 619.967375 497.709076 
L 620.612795 497.709076 
L 622.549055 498.56767 
L 623.839896 498.996967 
L 627.712417 498.353022 
L 628.357837 498.460346 
L 630.294098 498.031049 
L 631.584938 497.709076 
L 632.875779 497.923725 
L 634.812039 498.782319 
L 635.457459 498.889643 
L 636.7483 498.674994 
L 637.39372 498.245697 
L 638.03914 498.031049 
L 638.68456 498.031049 
L 639.975401 498.56767 
L 640.620821 498.996967 
L 641.266241 499.211616 
L 641.911661 499.211616 
L 642.557081 498.889643 
L 644.493342 496.743158 
L 645.138762 496.421185 
L 645.784182 496.528509 
L 646.429603 497.172455 
L 648.365863 500.284858 
L 649.011283 500.82148 
L 649.656704 500.714155 
L 650.302124 500.07021 
L 652.238384 496.850482 
L 652.883805 496.313861 
L 653.529225 496.421185 
L 654.174645 496.957806 
L 654.820065 497.709076 
L 655.465485 498.674994 
L 656.110906 499.31894 
L 656.756326 499.533589 
L 658.047166 498.996967 
L 659.338007 497.923725 
L 659.983427 497.601752 
L 661.274267 497.923725 
L 662.565107 498.782319 
L 663.855948 499.104291 
L 665.146788 498.782319 
L 666.437629 498.138373 
L 669.019309 497.8164 
L 670.95557 497.923725 
L 672.891831 498.674994 
L 673.537251 499.104291 
L 674.828091 499.426264 
L 676.118932 498.889643 
L 677.409772 497.923725 
L 678.055192 497.494428 
L 678.700612 497.279779 
L 679.346033 497.279779 
L 681.282293 498.460346 
L 682.573134 498.889643 
L 684.509394 498.674994 
L 686.445655 498.782319 
L 687.091075 498.889643 
L 688.381915 498.56767 
L 691.609016 497.065131 
L 692.899857 497.601752 
L 694.190697 498.996967 
L 694.836117 499.533589 
L 695.481537 499.855561 
L 696.126958 499.748237 
L 696.772378 499.426264 
L 698.708638 497.601752 
L 699.354059 497.279779 
L 699.999479 497.279779 
L 701.290319 497.8164 
L 703.22658 498.674994 
L 705.808261 498.674994 
L 706.453681 498.889643 
L 709.035362 498.353022 
L 709.680782 497.923725 
L 710.971622 497.601752 
L 712.262463 498.138373 
L 713.553303 498.889643 
L 714.198723 499.104291 
L 714.844143 498.996967 
L 715.489564 498.674994 
L 716.780404 497.494428 
L 717.425824 497.172455 
L 718.071244 497.065131 
L 718.716664 497.494428 
L 720.007505 499.104291 
L 720.652925 499.962886 
L 721.298345 500.284858 
L 721.943765 500.177534 
L 722.589186 499.748237 
L 724.525446 496.850482 
L 725.170866 496.313861 
L 725.816287 496.421185 
L 726.461707 496.850482 
L 727.107127 497.601752 
L 727.752547 498.56767 
L 728.397967 499.211616 
L 729.043388 499.426264 
L 729.688808 499.426264 
L 730.334228 499.211616 
L 730.979648 498.674994 
L 732.270489 498.138373 
L 734.206749 498.56767 
L 734.852169 498.782319 
L 735.49759 498.782319 
L 736.14301 498.56767 
L 736.78843 498.031049 
L 738.07927 497.387103 
L 738.724691 497.387103 
L 739.370111 497.601752 
L 741.306371 498.889643 
L 742.597212 499.211616 
L 743.888052 498.674994 
L 745.178893 498.138373 
L 746.469733 498.138373 
L 747.760573 498.460346 
L 749.051414 498.353022 
L 751.633094 497.923725 
L 752.278515 498.031049 
L 752.923935 498.353022 
L 754.860195 498.674994 
L 757.441876 498.138373 
L 760.668977 499.104291 
L 761.314397 498.889643 
L 763.250658 496.957806 
L 763.896078 496.743158 
L 764.541498 496.850482 
L 765.186919 497.387103 
L 765.832339 498.245697 
L 767.123179 500.177534 
L 767.768599 500.499507 
L 768.41402 500.499507 
L 769.05944 499.962886 
L 770.9957 496.957806 
L 771.641121 496.421185 
L 772.286541 496.313861 
L 772.931961 496.743158 
L 774.868221 499.104291 
L 775.513642 499.533589 
L 776.159062 499.533589 
L 777.449902 498.782319 
L 778.740743 498.031049 
L 779.386163 497.8164 
L 780.031583 497.923725 
L 781.322423 498.460346 
L 781.967844 498.674994 
L 783.258684 498.353022 
L 785.194945 497.709076 
L 785.840365 497.709076 
L 787.776625 498.56767 
L 789.067466 498.996967 
L 792.939987 498.353022 
L 793.585407 498.460346 
L 795.521668 498.031049 
L 796.812508 497.709076 
L 798.103349 497.923725 
L 800.039609 498.782319 
L 800.685029 498.889643 
L 801.97587 498.674994 
L 802.62129 498.245697 
L 803.26671 498.031049 
L 803.91213 498.031049 
L 805.202971 498.56767 
L 805.848391 498.996967 
L 806.493811 499.211616 
L 807.139231 499.211616 
L 807.784651 498.889643 
L 809.720912 496.743158 
L 810.366332 496.421185 
L 811.011752 496.528509 
L 811.657173 497.172455 
L 813.593433 500.284858 
L 814.238853 500.82148 
L 814.884274 500.714155 
L 815.529694 500.07021 
L 817.465954 496.850482 
L 818.111375 496.313861 
L 818.756795 496.421185 
L 819.402215 496.957806 
L 820.047635 497.709076 
L 820.693055 498.674994 
L 821.338476 499.31894 
L 821.983896 499.533589 
L 823.274736 498.996967 
L 824.565577 497.923725 
L 825.210997 497.601752 
L 826.501837 497.923725 
L 827.792678 498.782319 
L 829.083518 499.104291 
L 830.374358 498.782319 
L 831.665199 498.138373 
L 834.246879 497.8164 
L 836.18314 497.923725 
L 838.119401 498.674994 
L 838.764821 499.104291 
L 840.055661 499.426264 
L 841.346502 498.889643 
L 842.637342 497.923725 
L 843.282762 497.494428 
L 843.928182 497.279779 
L 844.573603 497.279779 
L 846.509863 498.460346 
L 847.800704 498.889643 
L 849.736964 498.674994 
L 851.673225 498.782319 
L 852.318645 498.889643 
L 853.609485 498.56767 
L 856.836586 497.065131 
L 858.127427 497.601752 
L 859.418267 498.996967 
L 860.063687 499.533589 
L 860.709107 499.855561 
L 861.354528 499.748237 
L 861.999948 499.426264 
L 863.936208 497.601752 
L 864.581629 497.279779 
L 865.227049 497.279779 
L 866.517889 497.8164 
L 868.45415 498.674994 
L 871.035831 498.674994 
L 871.681251 498.889643 
L 874.262932 498.353022 
L 874.908352 497.923725 
L 876.199192 497.601752 
L 877.490033 498.138373 
L 878.780873 498.889643 
L 879.426293 499.104291 
L 880.071713 498.996967 
L 880.717134 498.674994 
L 882.007974 497.494428 
L 882.653394 497.172455 
L 883.298814 497.065131 
L 883.944235 497.494428 
L 885.235075 499.104291 
L 885.880495 499.962886 
L 886.525915 500.284858 
L 887.171336 500.177534 
L 887.816756 499.748237 
L 889.753016 496.850482 
L 890.398436 496.313861 
L 891.043857 496.421185 
L 891.689277 496.850482 
L 892.334697 497.601752 
L 892.980117 498.56767 
L 893.625537 499.211616 
L 894.270958 499.426264 
L 894.916378 499.426264 
L 895.561798 499.211616 
L 896.207218 498.674994 
L 897.498059 498.138373 
L 899.434319 498.56767 
L 900.079739 498.782319 
L 900.72516 498.782319 
L 901.37058 498.56767 
L 902.016 498.031049 
L 903.30684 497.387103 
L 903.952261 497.387103 
L 904.597681 497.601752 
L 906.533941 498.889643 
L 907.824782 499.211616 
L 909.115622 498.674994 
L 910.406463 498.138373 
L 911.697303 498.138373 
L 912.988143 498.460346 
L 914.278984 498.353022 
L 916.860664 497.923725 
L 917.506085 498.031049 
L 918.151505 498.353022 
L 920.087765 498.674994 
L 922.669446 498.138373 
L 925.896547 499.104291 
L 926.541967 498.889643 
L 928.478228 496.957806 
L 929.123648 496.743158 
L 929.769068 496.850482 
L 930.414489 497.387103 
L 931.059909 498.245697 
L 932.350749 500.177534 
L 932.996169 500.499507 
L 933.64159 500.499507 
L 934.28701 499.962886 
L 936.22327 496.957806 
L 936.868691 496.421185 
L 937.514111 496.206537 
L 938.159531 496.635834 
L 939.450371 498.031049 
L 940.741212 499.426264 
L 941.386632 499.426264 
L 942.032052 499.211616 
L 944.613733 497.601752 
L 945.259153 497.601752 
L 947.840834 498.889643 
L 948.486254 498.889643 
L 949.131674 498.674994 
L 951.067935 497.494428 
L 952.358775 497.494428 
L 953.649616 498.031049 
L 954.940456 498.56767 
L 955.585876 498.674994 
L 961.394658 497.709076 
L 962.040078 497.387103 
L 963.976339 497.172455 
L 965.267179 497.709076 
L 967.20344 499.31894 
L 968.49428 499.426264 
L 969.1397 499.211616 
L 971.075961 498.031049 
L 972.366801 497.494428 
L 973.012221 497.494428 
L 975.593902 496.635834 
L 976.239322 496.206537 
L 977.530163 496.099212 
L 978.175583 496.421185 
L 978.821003 497.279779 
L 980.111844 499.31894 
L 980.757264 500.177534 
L 981.402684 500.606831 
L 982.048104 500.606831 
L 982.693524 500.07021 
L 984.629785 497.494428 
L 985.275205 497.065131 
L 985.920625 497.172455 
L 987.211466 497.923725 
L 987.856886 498.353022 
L 988.502306 498.353022 
L 989.147726 497.8164 
L 989.793147 496.957806 
L 991.083987 494.703997 
L 991.729407 494.167376 
L 992.374827 494.382024 
L 993.020248 495.240618 
L 993.665668 496.635834 
L 994.956508 499.855561 
L 995.601928 500.928804 
L 996.247349 501.250777 
L 996.892769 500.82148 
L 998.829029 498.56767 
L 999.47445 498.353022 
L 1000.11987 498.56767 
L 1001.41071 499.640913 
L 1002.05613 499.640913 
L 1002.70155 498.889643 
L 1003.346971 497.601752 
L 1004.637811 494.2747 
L 1005.283231 493.201457 
L 1005.928651 492.77216 
L 1006.574072 493.416106 
L 1008.510332 496.957806 
L 1009.155752 497.172455 
L 1009.801173 496.528509 
L 1010.446593 495.347943 
L 1011.092013 494.489349 
L 1011.737433 494.489349 
L 1012.382853 496.421185 
L 1013.028274 500.392183 
L 1014.964534 517.349415 
L 1015.609954 519.710548 
L 1016.255375 517.99336 
L 1016.900795 511.661229 
L 1017.546215 501.143452 
L 1018.191635 494.703997 
L 1018.837055 507.90488 
L 1019.482476 516.705469 
L 1020.127896 520.24717 
L 1020.773316 518.959279 
L 1021.418736 514.344336 
L 1022.709577 502.645992 
L 1023.354997 498.674994 
L 1024.000417 496.850482 
L 1024.645837 496.635834 
L 1025.291257 497.387103 
L 1025.936678 497.923725 
L 1026.582098 497.709076 
L 1027.227518 496.528509 
L 1028.518358 492.557512 
L 1029.163779 491.269621 
L 1029.809199 491.162297 
L 1030.454619 492.235539 
L 1032.390879 498.782319 
L 1033.0363 499.962886 
L 1033.68172 499.962886 
L 1034.32714 499.211616 
L 1034.97256 498.031049 
L 1035.61798 497.172455 
L 1036.263401 496.957806 
L 1036.908821 497.8164 
L 1038.845081 502.645992 
L 1039.490502 503.075289 
L 1040.135922 502.324019 
L 1040.781342 500.499507 
L 1042.072182 495.347943 
L 1042.717603 493.52343 
L 1043.363023 492.77216 
L 1044.008443 493.201457 
L 1044.653863 494.596673 
L 1045.944704 498.353022 
L 1046.590124 499.426264 
L 1047.235544 499.640913 
L 1047.880964 498.996967 
L 1049.171805 496.635834 
L 1049.817225 495.884564 
L 1050.462645 495.77724 
L 1051.108065 496.421185 
L 1053.044326 500.392183 
L 1053.689746 501.036128 
L 1054.335166 501.036128 
L 1054.980586 500.392183 
L 1056.916847 497.279779 
L 1057.562267 496.743158 
L 1058.207687 496.528509 
L 1058.853107 496.528509 
L 1060.789368 497.172455 
L 1062.725629 497.279779 
L 1063.371049 497.387103 
L 1065.95273 498.56767 
L 1066.59815 498.56767 
L 1068.53441 497.923725 
L 1069.179831 497.923725 
L 1070.470671 498.460346 
L 1071.761511 499.31894 
L 1072.406932 499.31894 
L 1073.052352 499.104291 
L 1073.697772 498.56767 
L 1074.988612 497.065131 
L 1075.634033 496.528509 
L 1076.279453 496.313861 
L 1076.924873 496.528509 
L 1078.215713 497.709076 
L 1078.861134 498.353022 
L 1079.506554 498.782319 
L 1080.151974 498.996967 
L 1081.442814 498.460346 
L 1082.733655 497.709076 
L 1083.379075 497.601752 
L 1084.024495 497.709076 
L 1086.606176 498.996967 
L 1087.251596 498.996967 
L 1089.187857 498.245697 
L 1089.833277 497.923725 
L 1091.124117 497.8164 
L 1094.351218 498.245697 
L 1100.16 498.353022 
L 1100.16 498.353022 
" clip-path="url(#p868fff8033)" style="fill: none; stroke: #8c1d40; stroke-width: 1.8; stroke-linecap: square"/>
   </g>
   <g id="line2d_64">
    <path d="M 109.44 498.353022 
L 287.575974 498.460346 
L 288.866814 498.56767 
L 307.584 498.674994 
L 308.87484 498.782319 
L 337.273329 498.889643 
L 338.564169 498.996967 
L 356.635935 498.996967 
L 357.281355 492.450188 
L 357.926775 466.048421 
L 358.572195 447.052028 
L 359.217616 438.251439 
L 359.863036 440.612573 
L 360.508456 452.632889 
L 361.799296 492.450188 
L 362.444717 512.090526 
L 363.090137 527.437895 
L 363.735557 536.775105 
L 364.380977 539.67286 
L 365.026397 537.311726 
L 365.671818 530.872271 
L 366.962658 511.446581 
L 369.544339 469.0535 
L 370.189759 462.184748 
L 370.835179 459.286993 
L 371.480599 461.970099 
L 372.12602 470.663364 
L 372.77144 485.366787 
L 374.7077 539.67286 
L 375.353121 549.868664 
L 375.998541 551.156555 
L 376.643961 542.46329 
L 377.289381 525.29141 
L 379.225642 459.823614 
L 379.871062 448.125271 
L 380.516482 446.300758 
L 381.161902 454.457402 
L 381.807322 470.663364 
L 383.098163 511.017284 
L 383.743583 527.115922 
L 384.389003 536.560456 
L 385.034423 538.277644 
L 385.679844 533.12608 
L 386.325264 523.144925 
L 387.616104 499.640913 
L 388.261524 490.303703 
L 388.906945 483.864247 
L 389.552365 480.215223 
L 390.197785 478.712683 
L 390.843205 478.498035 
L 391.488625 479.14198 
L 392.134046 480.966492 
L 392.779466 484.400869 
L 393.424886 490.089054 
L 394.070306 498.138373 
L 396.006567 527.759868 
L 396.651987 532.589459 
L 397.297407 531.730865 
L 397.942827 524.218167 
L 398.588248 510.802635 
L 399.879088 477.102819 
L 400.524508 463.579963 
L 401.169928 456.925859 
L 401.815349 458.643047 
L 402.460769 468.516879 
L 403.751609 502.86064 
L 404.397029 519.925197 
L 405.04245 531.730865 
L 405.68787 536.345808 
L 406.33329 533.12608 
L 406.97871 523.574222 
L 408.914971 485.044814 
L 409.560391 478.176062 
L 410.205811 476.244225 
L 410.851231 478.498035 
L 411.496651 483.43495 
L 412.787492 494.167376 
L 413.432912 497.709076 
L 414.078332 499.855561 
L 414.723752 501.465425 
L 415.369173 503.61191 
L 416.014593 506.616989 
L 417.305433 514.558984 
L 417.950853 517.027442 
L 418.596274 516.383497 
L 419.241694 511.768554 
L 419.887114 503.182613 
L 421.823375 471.199985 
L 422.468795 467.121664 
L 423.114215 469.482797 
L 423.759635 478.39071 
L 425.695896 521.857033 
L 426.341316 530.979595 
L 426.986736 532.911432 
L 427.632156 527.759868 
L 428.277577 516.383497 
L 429.568417 487.727921 
L 430.213837 476.888171 
L 430.859257 471.629282 
L 431.504678 472.273228 
L 432.150098 478.176062 
L 434.086358 504.36318 
L 434.731779 508.978123 
L 435.377199 510.373338 
L 436.022619 509.192771 
L 437.313459 504.899801 
L 437.958879 504.041207 
L 438.6043 504.470504 
L 439.24972 505.11445 
L 439.89514 504.899801 
L 440.54056 502.86064 
L 441.18598 498.56767 
L 443.122241 479.356629 
L 443.767661 476.673522 
L 444.413081 478.498035 
L 445.058502 485.259463 
L 446.994762 518.422657 
L 447.640182 525.076761 
L 448.285603 525.828031 
L 448.931023 520.354494 
L 449.576443 509.729393 
L 450.867283 484.615517 
L 451.512704 476.029577 
L 452.158124 473.024498 
L 452.803544 476.136901 
L 453.448964 484.18622 
L 454.739805 504.899801 
L 455.385225 511.983202 
L 456.030645 514.880957 
L 456.676065 512.94912 
L 457.321485 507.582908 
L 458.612326 495.02597 
L 459.257746 491.698918 
L 459.903166 491.698918 
L 460.548586 494.489349 
L 461.839427 502.431343 
L 462.484847 503.933883 
L 463.130267 502.645992 
L 463.775687 498.674994 
L 465.066528 488.47919 
L 465.711948 486.225381 
L 466.357368 487.513272 
L 467.002788 492.557512 
L 468.939049 514.237011 
L 469.584469 516.383497 
L 470.229889 513.807714 
L 470.875309 506.938962 
L 472.16615 487.942569 
L 472.81157 480.966492 
L 473.45699 478.605359 
L 474.10241 481.288465 
L 474.747831 488.47919 
L 476.038671 507.153611 
L 476.684091 513.593066 
L 477.329511 515.632227 
L 477.974932 512.841796 
L 478.620352 506.509665 
L 479.911192 491.162297 
L 480.556612 486.762002 
L 481.202033 486.332705 
L 481.847453 489.552433 
L 483.783713 505.651071 
L 484.429134 506.724314 
L 485.074554 504.470504 
L 487.010814 490.089054 
L 487.656235 488.801163 
L 488.301655 491.269621 
L 488.947075 496.850482 
L 490.237915 509.944041 
L 490.883336 513.163769 
L 491.528756 511.983202 
L 492.174176 506.616989 
L 494.110436 481.610438 
L 494.755857 478.39071 
L 495.401277 480.322547 
L 496.046697 487.083975 
L 497.982958 515.739551 
L 498.628378 519.603224 
L 499.273798 518.100685 
L 499.919218 511.768554 
L 501.855479 485.152138 
L 502.500899 481.503114 
L 503.146319 482.361708 
L 503.791739 486.976651 
L 505.08258 499.962886 
L 505.728 504.470504 
L 506.37342 506.080368 
L 507.01884 504.685153 
L 508.309681 498.460346 
L 508.955101 496.743158 
L 509.600521 497.387103 
L 510.245941 500.284858 
L 511.536782 507.90488 
L 512.182202 509.085447 
L 512.827622 506.616989 
L 513.473042 500.499507 
L 514.763883 483.112978 
L 515.409303 476.566198 
L 516.054723 474.634361 
L 516.700143 478.498035 
L 517.345564 487.835245 
L 519.281824 524.969437 
L 519.927244 530.121001 
L 520.572664 528.403813 
L 521.218085 519.925197 
L 523.154345 478.927332 
L 523.799765 471.199985 
L 524.445186 469.912094 
L 525.090606 474.956334 
L 525.736026 484.293544 
L 527.026866 505.11445 
L 527.672287 511.446581 
L 528.317707 513.485742 
L 528.963127 511.553905 
L 530.899388 498.353022 
L 531.544808 496.850482 
L 532.190228 497.709076 
L 533.481068 501.787398 
L 534.126489 502.109371 
L 534.771909 499.962886 
L 535.417329 495.562591 
L 536.708169 485.259463 
L 537.35359 483.005653 
L 537.99901 484.722841 
L 538.64443 490.303703 
L 540.580691 516.276172 
L 541.226111 520.24717 
L 541.871531 518.74463 
L 542.516951 512.305175 
L 544.453212 481.825086 
L 545.098632 476.995495 
L 545.744052 477.317468 
L 546.389472 483.005653 
L 548.325733 510.480662 
L 548.971153 514.773633 
L 549.616573 514.45166 
L 550.261993 509.729393 
L 551.552834 495.02597 
L 552.198254 489.767081 
L 552.843674 487.835245 
L 553.489094 489.767081 
L 555.425355 504.470504 
L 556.070775 506.080368 
L 556.716195 504.36318 
L 557.361616 500.07021 
L 558.007036 494.2747 
L 558.652456 489.552433 
L 559.297876 487.405948 
L 559.943296 489.015812 
L 560.588717 494.167376 
L 561.879557 508.441502 
L 562.524977 513.378417 
L 563.170397 514.237011 
L 563.815818 510.373338 
L 564.461238 502.86064 
L 565.752078 485.259463 
L 566.397498 480.107898 
L 567.042919 479.678601 
L 567.688339 484.293544 
L 568.979179 502.431343 
L 569.624599 511.124608 
L 570.27002 516.061524 
L 570.91544 516.383497 
L 571.56086 511.875878 
L 573.497121 488.47919 
L 574.142541 484.722841 
L 574.787961 485.152138 
L 575.433381 489.123136 
L 576.724221 501.143452 
L 577.369642 505.221774 
L 578.015062 506.080368 
L 578.660482 503.826559 
L 579.951322 495.02597 
L 580.596743 492.235539 
L 581.242163 492.128215 
L 581.887583 495.347943 
L 583.178423 506.724314 
L 583.823844 510.802635 
L 584.469264 511.553905 
L 585.114684 507.90488 
L 585.760104 500.606831 
L 587.050945 482.791005 
L 587.696365 477.424792 
L 588.341785 476.995495 
L 588.987205 482.254384 
L 589.632625 492.020891 
L 590.923466 515.095605 
L 591.568886 522.500979 
L 592.214306 524.325491 
L 592.859726 520.139845 
L 593.505147 510.90996 
L 594.795987 487.620596 
L 595.441407 479.249304 
L 596.086827 475.707604 
L 596.732248 477.317468 
L 597.377668 483.220302 
L 598.668508 499.533589 
L 599.313928 505.758395 
L 599.959349 508.870799 
L 600.604769 509.085447 
L 601.250189 507.260935 
L 601.895609 504.899801 
L 602.541029 503.182613 
L 603.18645 502.86064 
L 603.83187 503.826559 
L 604.47729 505.007126 
L 605.12271 504.899801 
L 605.76813 502.86064 
L 606.41355 498.56767 
L 608.349811 479.356629 
L 608.995231 476.673522 
L 609.640651 478.498035 
L 610.286072 485.259463 
L 612.222332 518.422657 
L 612.867752 525.076761 
L 613.513173 525.828031 
L 614.158593 520.354494 
L 614.804013 509.729393 
L 616.094853 484.615517 
L 616.740274 476.029577 
L 617.385694 473.024498 
L 618.031114 476.136901 
L 618.676534 484.18622 
L 619.967375 504.899801 
L 620.612795 511.983202 
L 621.258215 514.880957 
L 621.903635 512.94912 
L 622.549055 507.582908 
L 623.839896 495.02597 
L 624.485316 491.698918 
L 625.130736 491.698918 
L 625.776156 494.489349 
L 627.066997 502.431343 
L 627.712417 503.933883 
L 628.357837 502.645992 
L 629.003257 498.674994 
L 630.294098 488.47919 
L 630.939518 486.225381 
L 631.584938 487.513272 
L 632.230358 492.557512 
L 634.166619 514.237011 
L 634.812039 516.383497 
L 635.457459 513.807714 
L 636.102879 506.938962 
L 637.39372 487.942569 
L 638.03914 480.966492 
L 638.68456 478.605359 
L 639.32998 481.288465 
L 639.975401 488.47919 
L 641.266241 507.153611 
L 641.911661 513.593066 
L 642.557081 515.632227 
L 643.202502 512.841796 
L 643.847922 506.509665 
L 645.138762 491.162297 
L 645.784182 486.762002 
L 646.429603 486.332705 
L 647.075023 489.552433 
L 649.011283 505.651071 
L 649.656704 506.724314 
L 650.302124 504.470504 
L 652.238384 490.089054 
L 652.883805 488.801163 
L 653.529225 491.269621 
L 654.174645 496.850482 
L 655.465485 509.944041 
L 656.110906 513.163769 
L 656.756326 511.983202 
L 657.401746 506.616989 
L 659.338007 481.610438 
L 659.983427 478.39071 
L 660.628847 480.322547 
L 661.274267 487.083975 
L 663.210528 515.739551 
L 663.855948 519.603224 
L 664.501368 518.100685 
L 665.146788 511.768554 
L 667.083049 485.152138 
L 667.728469 481.503114 
L 668.373889 482.361708 
L 669.019309 486.976651 
L 670.31015 499.962886 
L 670.95557 504.470504 
L 671.60099 506.080368 
L 672.24641 504.685153 
L 673.537251 498.460346 
L 674.182671 496.743158 
L 674.828091 497.387103 
L 675.473511 500.284858 
L 676.764352 507.90488 
L 677.409772 509.085447 
L 678.055192 506.616989 
L 678.700612 500.499507 
L 679.991453 483.112978 
L 680.636873 476.566198 
L 681.282293 474.634361 
L 681.927713 478.498035 
L 682.573134 487.835245 
L 684.509394 524.969437 
L 685.154814 530.121001 
L 685.800235 528.403813 
L 686.445655 519.925197 
L 688.381915 478.927332 
L 689.027336 471.199985 
L 689.672756 469.912094 
L 690.318176 474.956334 
L 690.963596 484.293544 
L 692.254436 505.11445 
L 692.899857 511.446581 
L 693.545277 513.485742 
L 694.190697 511.553905 
L 696.126958 498.353022 
L 696.772378 496.850482 
L 697.417798 497.709076 
L 698.708638 501.787398 
L 699.354059 502.109371 
L 699.999479 499.962886 
L 700.644899 495.562591 
L 701.935739 485.259463 
L 702.58116 483.005653 
L 703.22658 484.722841 
L 703.872 490.303703 
L 705.808261 516.276172 
L 706.453681 520.24717 
L 707.099101 518.74463 
L 707.744521 512.305175 
L 709.680782 481.825086 
L 710.326202 476.995495 
L 710.971622 477.317468 
L 711.617042 483.005653 
L 713.553303 510.480662 
L 714.198723 514.773633 
L 714.844143 514.45166 
L 715.489564 509.729393 
L 716.780404 495.02597 
L 717.425824 489.767081 
L 718.071244 487.835245 
L 718.716664 489.767081 
L 720.652925 504.470504 
L 721.298345 506.080368 
L 721.943765 504.36318 
L 722.589186 500.07021 
L 723.234606 494.2747 
L 723.880026 489.552433 
L 724.525446 487.405948 
L 725.170866 489.015812 
L 725.816287 494.167376 
L 727.107127 508.441502 
L 727.752547 513.378417 
L 728.397967 514.237011 
L 729.043388 510.373338 
L 729.688808 502.86064 
L 730.979648 485.259463 
L 731.625068 480.107898 
L 732.270489 479.678601 
L 732.915909 484.293544 
L 734.206749 502.431343 
L 734.852169 511.124608 
L 735.49759 516.061524 
L 736.14301 516.383497 
L 736.78843 511.875878 
L 738.724691 488.47919 
L 739.370111 484.722841 
L 740.015531 485.152138 
L 740.660951 489.123136 
L 741.951792 501.143452 
L 742.597212 505.221774 
L 743.242632 506.080368 
L 743.888052 503.826559 
L 745.178893 495.02597 
L 745.824313 492.235539 
L 746.469733 492.128215 
L 747.115153 495.347943 
L 748.405993 506.724314 
L 749.051414 510.802635 
L 749.696834 511.553905 
L 750.342254 507.90488 
L 750.987674 500.606831 
L 752.278515 482.791005 
L 752.923935 477.424792 
L 753.569355 476.995495 
L 754.214775 482.254384 
L 754.860195 492.020891 
L 756.151036 515.095605 
L 756.796456 522.500979 
L 757.441876 524.325491 
L 758.087296 520.139845 
L 758.732717 510.90996 
L 760.023557 487.620596 
L 760.668977 479.249304 
L 761.314397 475.707604 
L 761.959818 477.317468 
L 762.605238 483.220302 
L 763.896078 499.533589 
L 764.541498 505.758395 
L 765.186919 508.870799 
L 765.832339 509.085447 
L 766.477759 507.260935 
L 767.123179 504.899801 
L 767.768599 503.182613 
L 768.41402 502.86064 
L 769.05944 503.826559 
L 769.70486 505.007126 
L 770.35028 504.899801 
L 770.9957 502.86064 
L 771.641121 498.56767 
L 773.577381 479.356629 
L 774.222801 476.673522 
L 774.868221 478.498035 
L 775.513642 485.259463 
L 777.449902 518.422657 
L 778.095322 525.076761 
L 778.740743 525.828031 
L 779.386163 520.354494 
L 780.031583 509.729393 
L 781.322423 484.615517 
L 781.967844 476.029577 
L 782.613264 473.024498 
L 783.258684 476.136901 
L 783.904104 484.18622 
L 785.194945 504.899801 
L 785.840365 511.983202 
L 786.485785 514.880957 
L 787.131205 512.94912 
L 787.776625 507.582908 
L 789.067466 495.02597 
L 789.712886 491.698918 
L 790.358306 491.698918 
L 791.003726 494.489349 
L 792.294567 502.431343 
L 792.939987 503.933883 
L 793.585407 502.645992 
L 794.230827 498.674994 
L 795.521668 488.47919 
L 796.167088 486.225381 
L 796.812508 487.513272 
L 797.457928 492.557512 
L 799.394189 514.237011 
L 800.039609 516.383497 
L 800.685029 513.807714 
L 801.33045 506.938962 
L 802.62129 487.942569 
L 803.26671 480.966492 
L 803.91213 478.605359 
L 804.55755 481.288465 
L 805.202971 488.47919 
L 806.493811 507.153611 
L 807.139231 513.593066 
L 807.784651 515.632227 
L 808.430072 512.841796 
L 809.075492 506.509665 
L 810.366332 491.162297 
L 811.011752 486.762002 
L 811.657173 486.332705 
L 812.302593 489.552433 
L 814.238853 505.651071 
L 814.884274 506.724314 
L 815.529694 504.470504 
L 817.465954 490.089054 
L 818.111375 488.801163 
L 818.756795 491.269621 
L 819.402215 496.850482 
L 820.693055 509.944041 
L 821.338476 513.163769 
L 821.983896 511.983202 
L 822.629316 506.616989 
L 824.565577 481.610438 
L 825.210997 478.39071 
L 825.856417 480.322547 
L 826.501837 487.083975 
L 828.438098 515.739551 
L 829.083518 519.603224 
L 829.728938 518.100685 
L 830.374358 511.768554 
L 832.310619 485.152138 
L 832.956039 481.503114 
L 833.601459 482.361708 
L 834.246879 486.976651 
L 835.53772 499.962886 
L 836.18314 504.470504 
L 836.82856 506.080368 
L 837.47398 504.685153 
L 838.764821 498.460346 
L 839.410241 496.743158 
L 840.055661 497.387103 
L 840.701081 500.284858 
L 841.991922 507.90488 
L 842.637342 509.085447 
L 843.282762 506.616989 
L 843.928182 500.499507 
L 845.219023 483.112978 
L 845.864443 476.566198 
L 846.509863 474.634361 
L 847.155283 478.498035 
L 847.800704 487.835245 
L 849.736964 524.969437 
L 850.382384 530.121001 
L 851.027805 528.403813 
L 851.673225 519.925197 
L 853.609485 478.927332 
L 854.254906 471.199985 
L 854.900326 469.912094 
L 855.545746 474.956334 
L 856.191166 484.293544 
L 857.482007 505.11445 
L 858.127427 511.446581 
L 858.772847 513.485742 
L 859.418267 511.553905 
L 861.354528 498.353022 
L 861.999948 496.850482 
L 862.645368 497.709076 
L 863.936208 501.787398 
L 864.581629 502.109371 
L 865.227049 499.962886 
L 865.872469 495.562591 
L 867.163309 485.259463 
L 867.80873 483.005653 
L 868.45415 484.722841 
L 869.09957 490.303703 
L 871.035831 516.276172 
L 871.681251 520.24717 
L 872.326671 518.74463 
L 872.972091 512.305175 
L 874.908352 481.825086 
L 875.553772 476.995495 
L 876.199192 477.317468 
L 876.844612 483.005653 
L 878.780873 510.480662 
L 879.426293 514.773633 
L 880.071713 514.45166 
L 880.717134 509.729393 
L 882.007974 495.02597 
L 882.653394 489.767081 
L 883.298814 487.835245 
L 883.944235 489.767081 
L 885.880495 504.470504 
L 886.525915 506.080368 
L 887.171336 504.36318 
L 887.816756 500.07021 
L 888.462176 494.2747 
L 889.107596 489.552433 
L 889.753016 487.405948 
L 890.398436 489.015812 
L 891.043857 494.167376 
L 892.334697 508.441502 
L 892.980117 513.378417 
L 893.625537 514.237011 
L 894.270958 510.373338 
L 894.916378 502.86064 
L 896.207218 485.259463 
L 896.852638 480.107898 
L 897.498059 479.678601 
L 898.143479 484.293544 
L 899.434319 502.431343 
L 900.079739 511.124608 
L 900.72516 516.061524 
L 901.37058 516.383497 
L 902.016 511.875878 
L 903.952261 488.47919 
L 904.597681 484.722841 
L 905.243101 485.152138 
L 905.888521 489.123136 
L 907.179362 501.143452 
L 907.824782 505.221774 
L 908.470202 506.080368 
L 909.115622 503.826559 
L 910.406463 495.02597 
L 911.051883 492.235539 
L 911.697303 492.128215 
L 912.342723 495.347943 
L 913.633564 506.724314 
L 914.278984 510.802635 
L 914.924404 511.553905 
L 915.569824 507.90488 
L 916.215244 500.606831 
L 917.506085 482.791005 
L 918.151505 477.424792 
L 918.796925 476.995495 
L 919.442345 482.254384 
L 920.087765 492.020891 
L 921.378606 515.095605 
L 922.024026 522.500979 
L 922.669446 524.325491 
L 923.314866 520.139845 
L 923.960287 510.90996 
L 925.251127 487.620596 
L 925.896547 479.249304 
L 926.541967 475.707604 
L 927.187388 477.317468 
L 927.832808 483.220302 
L 929.123648 499.533589 
L 929.769068 505.758395 
L 930.414489 508.870799 
L 931.059909 509.085447 
L 931.705329 507.260935 
L 932.350749 504.899801 
L 932.996169 503.182613 
L 933.64159 502.86064 
L 934.28701 503.826559 
L 934.93243 505.007126 
L 935.57785 504.899801 
L 936.22327 502.645992 
L 936.868691 497.923725 
L 938.804951 477.317468 
L 939.450371 474.741686 
L 940.095792 477.317468 
L 940.741212 485.259463 
L 942.677472 522.715628 
L 943.322893 530.121001 
L 943.968313 530.872271 
L 944.613733 524.432816 
L 945.259153 512.090526 
L 946.549993 481.717762 
L 947.195414 470.448715 
L 947.840834 465.404476 
L 948.486254 467.443636 
L 949.131674 475.814928 
L 951.067935 511.768554 
L 951.713355 518.74463 
L 952.358775 520.569142 
L 953.004195 517.99336 
L 955.585876 496.421185 
L 956.231296 494.2747 
L 957.522137 492.128215 
L 958.167557 490.196378 
L 960.103818 481.825086 
L 960.749238 482.039735 
L 961.394658 485.903408 
L 962.040078 493.630755 
L 963.976339 525.828031 
L 964.621759 530.872271 
L 965.267179 529.262407 
L 965.912599 520.783791 
L 966.55802 506.616989 
L 967.84886 473.34647 
L 968.49428 461.648127 
L 969.1397 457.355156 
L 969.785121 461.326154 
L 970.430541 472.809849 
L 972.366801 521.857033 
L 973.012221 531.408892 
L 973.657642 533.87735 
L 974.303062 529.58438 
L 974.948482 519.925197 
L 976.239322 495.669915 
L 976.884743 485.903408 
L 977.530163 479.571277 
L 978.175583 476.780847 
L 978.821003 477.102819 
L 979.466423 479.14198 
L 980.757264 485.259463 
L 981.402684 489.015812 
L 982.048104 493.845403 
L 982.693524 500.07021 
L 984.629785 524.432816 
L 985.275205 529.477056 
L 985.920625 529.58438 
L 986.566046 523.681546 
L 987.211466 511.446581 
L 989.147726 460.896857 
L 989.793147 451.023025 
L 990.438567 449.842459 
L 991.083987 458.21375 
L 991.729407 474.84901 
L 993.665668 537.311726 
L 994.311088 548.151476 
L 994.956508 549.117394 
L 995.601928 540.531454 
L 996.247349 524.432816 
L 997.538189 484.508193 
L 998.183609 468.516879 
L 998.829029 458.643047 
L 999.47445 455.959941 
L 1000.11987 459.930939 
L 1000.76529 468.731527 
L 1003.346971 513.915039 
L 1003.992391 521.749709 
L 1004.637811 527.437895 
L 1005.283231 530.764947 
L 1005.928651 531.194244 
L 1006.574072 527.974516 
L 1007.219492 520.354494 
L 1007.864912 508.441502 
L 1010.446593 447.803298 
L 1011.092013 443.939625 
L 1011.737433 449.413162 
L 1012.382853 464.545881 
L 1013.673694 513.378417 
L 1014.319114 538.17032 
L 1014.964534 556.630092 
L 1015.609954 564.464763 
L 1016.255375 560.064468 
L 1016.900795 543.96583 
L 1018.191635 497.709076 
L 1054.980586 497.8164 
L 1056.271427 497.923725 
L 1077.570293 498.031049 
L 1078.861134 498.138373 
L 1096.287479 498.245697 
L 1097.578319 498.353022 
L 1100.16 498.353022 
L 1100.16 498.353022 
" clip-path="url(#p868fff8033)" style="fill: none; stroke: #b08100; stroke-opacity: 0.85; stroke-width: 1.8; stroke-linecap: square"/>
   </g>
   <g id="line2d_65">
    <path d="M 357.281355 573.48 
L 357.281355 396.39498 
" clip-path="url(#p868fff8033)" style="fill: none; stroke-dasharray: 1,1.65; stroke-dashoffset: 0; stroke: #777a80"/>
   </g>
   <g id="line2d_66">
    <path d="M 1018.191635 573.48 
L 1018.191635 396.39498 
" clip-path="url(#p868fff8033)" style="fill: none; stroke-dasharray: 1,1.65; stroke-dashoffset: 0; stroke: #777a80"/>
   </g>
   <g id="patch_8">
    <path d="M 109.44 573.48 
L 109.44 396.39498 
" style="fill: none; stroke: #aaa4a7; stroke-width: 0.8; stroke-linejoin: miter; stroke-linecap: square"/>
   </g>
   <g id="patch_9">
    <path d="M 109.44 573.48 
L 1100.16 573.48 
" style="fill: none; stroke: #aaa4a7; stroke-width: 0.8; stroke-linejoin: miter; stroke-linecap: square"/>
   </g>
   <g id="legend_2">
    <g id="line2d_67">
     <path d="M 604.479375 410.803261 
L 615.479375 410.803261 
L 626.479375 410.803261 
" style="fill: none; stroke: #8c1d40; stroke-width: 1.8; stroke-linecap: square"/>
    </g>
    <g id="text_36">
     <text style="font-size: 11px; font-family: 'DejaVu Sans'; text-anchor: start; fill: #252525" x="635.279375" y="414.653261" transform="rotate(-0 635.279375 414.653261)">10^11: full-stream RMSE 22.71 LSB</text>
    </g>
    <g id="line2d_68">
     <path d="M 854.870312 410.803261 
L 865.870312 410.803261 
L 876.870312 410.803261 
" style="fill: none; stroke: #b08100; stroke-opacity: 0.85; stroke-width: 1.8; stroke-linecap: square"/>
    </g>
    <g id="text_37">
     <text style="font-size: 11px; font-family: 'DejaVu Sans'; text-anchor: start; fill: #252525" x="885.670312" y="414.653261" transform="rotate(-0 885.670312 414.653261)">10^13: full-stream RMSE 129.55 LSB</text>
    </g>
   </g>
  </g>
  <g id="text_38">
   <text style="font-weight: 700; font-size: 12px; font-family: 'DejaVu Sans'; text-anchor: start; fill: #8c1d40" x="63.36" y="35.64" transform="rotate(-0 63.36 35.64)">T-RECAP  /  REFERENCE MODEL</text>
  </g>
  <g id="text_39">
   <text style="font-size: 12px; font-family: 'DejaVu Sans'; text-anchor: end; fill: #8c1d40" x="1111.68" y="35.64" transform="rotate(-0 1111.68 35.64)">Team #2</text>
  </g>
  <g id="text_40">
   <text style="font-weight: 700; font-size: 25px; font-family: 'DejaVu Sans'; text-anchor: start; fill: #8c1d40" x="63.36" y="76.464" transform="rotate(-0 63.36 76.464)">Higher thresholds change the reconstructed signal</text>
  </g>
  <g id="text_41">
   <text style="font-size: 12.5px; font-family: 'DejaVu Sans'; text-anchor: start; fill: #777a80" x="63.36" y="105.624" transform="rotate(-0 63.36 105.624)">Same input and coefficients  |  Upper plot aligns output by D = 384  |  Lower plot includes the full emitted stream</text>
  </g>
  <g id="text_42">
   <text style="font-size: 11px; font-family: 'DejaVu Sans'; text-anchor: start; fill: #777a80" x="63.36" y="625.32" transform="rotate(-0 63.36 625.32)">Reference-model simulation. Sample codes are not volts. No electrical-energy measurement.</text>
  </g>
  <g id="text_43">
   <text style="font-size: 10px; font-family: 'DejaVu Sans'; text-anchor: end; fill: #777a80" x="1111.68" y="625.32" transform="rotate(-0 1111.68 625.32)">03 / 07</text>
  </g>
 </g>
 <defs>
  <clipPath id="p65ed02f756">
   <rect x="109.44" y="136.08" width="990.72" height="177.08502"/>
  </clipPath>
  <clipPath id="p868fff8033">
   <rect x="109.44" y="396.39498" width="990.72" height="177.08502"/>
  </clipPath>
 </defs>
</svg>
